HIERARCHY
ROOT hips
{
	OFFSET 0.000000 104.274902 0.000000
	CHANNELS 6 Xposition Yposition Zposition Xrotation Yrotation Zrotation
	JOINT spine
	{
		OFFSET 0.000000 10.181549 0.131524
		CHANNELS 6 Xposition Yposition Zposition Xrotation Yrotation Zrotation
		JOINT chest
		{
			OFFSET 0.000000 9.893990 -1.470706
			CHANNELS 3 Xrotation Yrotation Zrotation
			JOINT upperChest
			{
				OFFSET 0.000000 9.220787 -1.370637
				CHANNELS 3 Xrotation Yrotation Zrotation
				JOINT neck
				{
					OFFSET 0.000000 16.740372 -2.049022
					CHANNELS 6 Xposition Yposition Zposition Xrotation Yrotation Zrotation
					JOINT head
					{
						OFFSET 0.000000 9.617859 1.684976
						CHANNELS 6 Xposition Yposition Zposition Xrotation Yrotation Zrotation
						JOINT headEnd
						{
							OFFSET 0.000000 22.037384 7.501072
							CHANNELS 6 Xposition Yposition Zposition Xrotation Yrotation Zrotation
							End Site
							{
								OFFSET 0.000000 23.106567 -2.828246
							}
						}
					}
				}
				JOINT rightShoulder
				{
					OFFSET -4.570000 11.014877 -2.160840
					CHANNELS 6 Xposition Yposition Zposition Xrotation Yrotation Zrotation
					JOINT rightUpperArm
					{
						OFFSET -10.592867 -0.524796 -2.232105
						CHANNELS 3 Xrotation Yrotation Zrotation
						JOINT rightLowerArm
						{
							OFFSET -27.841497 0.000000 -0.000002
							CHANNELS 3 Xrotation Yrotation Zrotation
							JOINT rightHand
							{
								OFFSET -28.328812 0.000000 -0.000001
								CHANNELS 3 Xrotation Yrotation Zrotation
								JOINT rightThumbProximal
								{
									OFFSET -2.464798 -1.573990 2.681911
									CHANNELS 6 Xposition Yposition Zposition Xrotation Yrotation Zrotation
									JOINT rightThumbIntermediate
									{
										OFFSET -3.244781 -1.873383 1.873376
										CHANNELS 3 Xrotation Yrotation Zrotation
										JOINT rightThumbDistal
										{
											OFFSET -2.646263 -1.527817 1.527818
											CHANNELS 6 Xposition Yposition Zposition Xrotation Yrotation Zrotation
											JOINT rightHandThumb4
											{
												OFFSET -1.994591 -1.151581 1.151575
												CHANNELS 6 Xposition Yposition Zposition Xrotation Yrotation Zrotation
												End Site
												{
													OFFSET -1.860176 -1.142715 1.365483
												}
											}
										}
									}
								}
								JOINT rightIndexProximal
								{
									OFFSET -9.108299 -0.517883 2.259803
									CHANNELS 6 Xposition Yposition Zposition Xrotation Yrotation Zrotation
									JOINT rightIndexIntermediate
									{
										OFFSET -3.699997 0.000000 0.000000
										CHANNELS 3 Xrotation Yrotation Zrotation
										JOINT rightIndexDistal
										{
											OFFSET -2.850006 0.000000 0.000000
											CHANNELS 3 Xrotation Yrotation Zrotation
											JOINT rightHandIndex4
											{
												OFFSET -2.772194 0.000000 0.000000
												CHANNELS 3 Xrotation Yrotation Zrotation
												End Site
												{
													OFFSET -2.772202 0.000000 -0.000484
												}
											}
										}
									}
								}
								JOINT rightMiddleProximal
								{
									OFFSET -9.532501 0.000000 -0.000000
									CHANNELS 6 Xposition Yposition Zposition Xrotation Yrotation Zrotation
									JOINT rightMiddleIntermediate
									{
										OFFSET -3.699997 0.000000 0.000000
										CHANNELS 3 Xrotation Yrotation Zrotation
										JOINT rightMiddleDistal
										{
											OFFSET -2.949997 0.000000 0.000000
											CHANNELS 3 Xrotation Yrotation Zrotation
											JOINT rightHandMiddle4
											{
												OFFSET -2.946594 0.000000 0.000000
												CHANNELS 3 Xrotation Yrotation Zrotation
												End Site
												{
													OFFSET -2.946602 0.000000 -0.000982
												}
											}
										}
									}
								}
								JOINT rightRingProximal
								{
									OFFSET -9.103600 -0.043106 -1.865100
									CHANNELS 6 Xposition Yposition Zposition Xrotation Yrotation Zrotation
									JOINT rightRingIntermediate
									{
										OFFSET -3.379303 0.000000 0.000000
										CHANNELS 3 Xrotation Yrotation Zrotation
										JOINT rightRingDistal
										{
											OFFSET -2.889694 0.000000 0.000000
											CHANNELS 3 Xrotation Yrotation Zrotation
											JOINT rightHandRing4
											{
												OFFSET -2.638802 0.000000 0.000000
												CHANNELS 3 Xrotation Yrotation Zrotation
												End Site
												{
													OFFSET -2.638802 0.000000 0.004218
												}
											}
										}
									}
								}
								JOINT rightLittleProximal
								{
									OFFSET -8.076698 -0.486725 -3.806299
									CHANNELS 6 Xposition Yposition Zposition Xrotation Yrotation Zrotation
									JOINT rightLittleIntermediate
									{
										OFFSET -3.600006 0.000000 0.000000
										CHANNELS 3 Xrotation Yrotation Zrotation
										JOINT rightLittleDistal
										{
											OFFSET -2.099998 0.000000 0.000000
											CHANNELS 3 Xrotation Yrotation Zrotation
											JOINT rightHandPinky4
											{
												OFFSET -2.115791 0.000000 0.000000
												CHANNELS 3 Xrotation Yrotation Zrotation
												End Site
												{
													OFFSET -2.115799 0.000000 0.000174
												}
											}
										}
									}
								}
							}
						}
					}
				}
				JOINT leftShoulder
				{
					OFFSET 4.570400 11.014679 -2.160816
					CHANNELS 6 Xposition Yposition Zposition Xrotation Yrotation Zrotation
					JOINT leftUpperArm
					{
						OFFSET 10.592373 -0.524597 -2.232116
						CHANNELS 3 Xrotation Yrotation Zrotation
						JOINT leftLowerArm
						{
							OFFSET 27.841488 0.000000 0.000001
							CHANNELS 3 Xrotation Yrotation Zrotation
							JOINT leftHand
							{
								OFFSET 28.328808 0.000000 -0.000000
								CHANNELS 3 Xrotation Yrotation Zrotation
								JOINT leftThumbProximal
								{
									OFFSET 2.466103 -1.576202 2.681698
									CHANNELS 6 Xposition Yposition Zposition Xrotation Yrotation Zrotation
									JOINT leftThumbIntermediate
									{
										OFFSET 3.243317 -1.872528 1.872530
										CHANNELS 3 Xrotation Yrotation Zrotation
										JOINT leftThumbDistal
										{
											OFFSET 2.647881 -1.528763 1.528754
											CHANNELS 6 Xposition Yposition Zposition Xrotation Yrotation Zrotation
											JOINT leftHandThumb4
											{
												OFFSET 1.998924 -1.154083 1.154080
												CHANNELS 6 Xposition Yposition Zposition Xrotation Yrotation Zrotation
												End Site
												{
													OFFSET 1.884041 -1.149155 1.337651
												}
											}
										}
									}
								}
								JOINT leftIndexProximal
								{
									OFFSET 9.109299 -0.518005 2.259900
									CHANNELS 6 Xposition Yposition Zposition Xrotation Yrotation Zrotation
									JOINT leftIndexIntermediate
									{
										OFFSET 3.699997 0.000000 0.000000
										CHANNELS 3 Xrotation Yrotation Zrotation
										JOINT leftIndexDistal
										{
											OFFSET 2.850006 0.000000 0.000000
											CHANNELS 3 Xrotation Yrotation Zrotation
											JOINT leftHandIndex4
											{
												OFFSET 2.774895 0.000000 0.000000
												CHANNELS 3 Xrotation Yrotation Zrotation
												End Site
												{
													OFFSET 2.774902 0.000000 -0.000072
												}
											}
										}
									}
								}
								JOINT leftMiddleProximal
								{
									OFFSET 9.533401 0.000000 0.000000
									CHANNELS 6 Xposition Yposition Zposition Xrotation Yrotation Zrotation
									JOINT leftMiddleIntermediate
									{
										OFFSET 3.699997 0.000000 0.000000
										CHANNELS 3 Xrotation Yrotation Zrotation
										JOINT leftMiddleDistal
										{
											OFFSET 2.949997 0.000000 0.000000
											CHANNELS 3 Xrotation Yrotation Zrotation
											JOINT leftHandMiddle4
											{
												OFFSET 2.952896 0.000000 0.000000
												CHANNELS 3 Xrotation Yrotation Zrotation
												End Site
												{
													OFFSET 2.952904 0.000000 0.000165
												}
											}
										}
									}
								}
								JOINT leftRingProximal
								{
									OFFSET 9.104500 -0.042999 -1.865101
									CHANNELS 6 Xposition Yposition Zposition Xrotation Yrotation Zrotation
									JOINT leftRingIntermediate
									{
										OFFSET 3.149994 0.000000 0.000000
										CHANNELS 3 Xrotation Yrotation Zrotation
										JOINT leftRingDistal
										{
											OFFSET 2.950005 0.000000 0.000000
											CHANNELS 3 Xrotation Yrotation Zrotation
											JOINT leftHandRing4
											{
												OFFSET 2.644302 0.000000 0.000000
												CHANNELS 3 Xrotation Yrotation Zrotation
												End Site
												{
													OFFSET 2.644302 0.000000 0.000083
												}
											}
										}
									}
								}
								JOINT leftLittleProximal
								{
									OFFSET 8.077805 -0.486893 -3.806302
									CHANNELS 6 Xposition Yposition Zposition Xrotation Yrotation Zrotation
									JOINT leftLittleIntermediate
									{
										OFFSET 3.600006 0.000000 0.000000
										CHANNELS 3 Xrotation Yrotation Zrotation
										JOINT leftLittleDistal
										{
											OFFSET 2.099998 0.000000 0.000000
											CHANNELS 3 Xrotation Yrotation Zrotation
											JOINT leftHandPinky4
											{
												OFFSET 2.125496 0.000000 0.000000
												CHANNELS 3 Xrotation Yrotation Zrotation
												End Site
												{
													OFFSET 2.125504 0.000000 -0.001254
												}
											}
										}
									}
								}
							}
						}
					}
				}
			}
		}
	}
	JOINT rightUpperLeg
	{
		OFFSET -8.207800 -6.751701 -1.599544
		CHANNELS 6 Xposition Yposition Zposition Xrotation Yrotation Zrotation
		JOINT rightLowerLeg
		{
			OFFSET 0.000004 -44.370152 0.345934
			CHANNELS 3 Xrotation Yrotation Zrotation
			JOINT rightFoot
			{
				OFFSET 0.000004 -44.423664 -3.043535
				CHANNELS 3 Xrotation Yrotation Zrotation
				JOINT rightToes
				{
					OFFSET 0.000001 -8.728691 10.710592
					CHANNELS 3 Xrotation Yrotation Zrotation
					JOINT rightToesEnd
					{
						OFFSET 0.000000 -0.000665 9.278101
						CHANNELS 3 Xrotation Yrotation Zrotation
						End Site
						{
							OFFSET 0.000000 -0.000665 9.278103
						}
					}
				}
			}
		}
	}
	JOINT leftUpperLeg
	{
		OFFSET 8.207800 -6.751701 -1.599544
		CHANNELS 6 Xposition Yposition Zposition Xrotation Yrotation Zrotation
		JOINT leftLowerLeg
		{
			OFFSET 0.000004 -44.370037 0.346940
			CHANNELS 3 Xrotation Yrotation Zrotation
			JOINT leftFoot
			{
				OFFSET 0.000004 -44.423611 -3.044388
				CHANNELS 3 Xrotation Yrotation Zrotation
				JOINT leftToes
				{
					OFFSET 0.000001 -8.728690 10.710592
					CHANNELS 3 Xrotation Yrotation Zrotation
					JOINT leftToesEnd
					{
						OFFSET 0.000000 -0.000680 9.278101
						CHANNELS 3 Xrotation Yrotation Zrotation
						End Site
						{
							OFFSET 0.000000 -0.000680 9.278101
						}
					}
				}
			}
		}
	}
}
MOTION
Frames: 4
Frame Time: 0.033333
0.473545 101.630569 1.556777 -0.893249 1.392656 -5.361649 0.000002 10.181531 0.131524 1.298029 -1.197529 3.016449 0.728745 0.264196 5.944687 0.710787 0.781492 5.852003 -0.000001 16.740364 -2.049017 1.045306 -0.304693 -2.163989 -0.000000 9.617867 1.684972 1.584932 0.544178 -8.140491 -0.000000 22.037384 7.501072 -0.000000 -0.000000 0.000000 -4.569999 11.014873 -2.160837 4.508122 3.324384 5.471621 -1.219697 0.655820 67.345412 0.000013 17.736789 0.000016 -11.193124 -9.123289 10.139270 -2.464787 -1.573992 2.681900 18.491296 0.461458 -10.916083 1.284041 -32.757621 3.089019 -2.646264 -1.527809 1.527815 2.008721 -8.430471 1.114697 -1.994583 -1.151582 1.151577 0.000000 -0.000005 -0.000000 -9.108298 -0.517879 2.259801 0.339569 -4.671354 7.844305 0.387031 -2.823575 20.566200 -0.193126 -0.216345 13.843946 -0.000000 -0.000000 -0.000001 -9.532499 0.000010 -0.000002 0.912589 -8.769265 15.831740 0.919081 -3.991131 33.400431 0.216461 -1.688815 15.898047 -0.000001 0.000000 -0.000001 -9.103594 -0.043106 -1.865104 2.555830 -11.673028 26.909195 1.710648 -3.886774 40.215478 -0.157962 0.035284 17.815336 -0.000001 -0.000000 -0.000000 -8.076687 -0.486716 -3.806300 5.576073 -16.029165 36.940627 1.378680 -4.077638 45.645628 -0.727750 -0.247555 22.122733 0.000000 0.000001 0.000000 4.570400 11.014679 -2.160812 3.582365 -13.764042 -5.044463 4.032784 3.514265 -83.678348 0.000000 -14.506751 -0.000019 -27.592631 3.698767 -9.416234 2.466080 -1.576204 2.681692 18.491381 -0.461335 10.916051 1.284019 32.757618 -3.089007 2.647869 -1.528746 1.528746 2.117150 9.311167 -0.358634 1.998917 -1.154088 1.154073 -0.000001 0.000001 -0.000000 9.109283 -0.518019 2.259900 0.339555 4.671367 -7.844275 0.387013 2.823612 -20.566227 0.034606 0.816853 -10.169814 0.000000 0.000001 -0.000005 9.533387 0.000001 -0.000000 0.912578 8.769289 -15.831723 0.919029 3.991196 -33.400424 0.170558 1.488897 -12.264410 0.000000 -0.000002 0.000003 9.104490 -0.043010 -1.865101 2.555788 11.673079 -26.909159 1.710617 3.886855 -40.215478 0.544836 1.835109 -19.344146 0.000001 0.000000 0.000000 8.077803 -0.486888 -3.806300 5.576038 16.029235 -36.940603 1.378652 4.077722 -45.645628 0.486561 2.853431 -20.524722 0.000000 0.000000 0.000001 -8.207795 -6.751715 -1.599544 -1.611669 -4.968373 10.552480 12.453742 -5.082840 3.268253 -9.845194 1.009987 -7.756132 -0.521728 -0.000002 -0.000001 -0.000000 -0.000001 -0.000000 8.207797 -6.751717 -1.599545 -19.558322 10.812403 15.936665 22.047912 9.498650 2.339223 -1.497449 3.351570 -8.781875 -0.432844 0.000003 -0.000001 0.000000 -0.000000 0.000000 
-0.087849 101.446869 2.189176 -0.895326 4.144978 -5.333516 -0.000000 10.181542 0.131525 1.199735 -0.738423 3.076792 0.709351 0.717632 5.835115 0.726247 1.233332 5.735946 0.000003 16.740372 -2.049021 0.767551 -1.162771 -2.282823 0.000003 9.617871 1.684973 1.307568 -1.269418 -7.858116 -0.000000 22.037384 7.501070 -0.000000 0.000000 -0.000000 -4.569995 11.014887 -2.160841 4.488074 3.499390 5.245342 -0.879646 0.571236 67.668439 -0.000005 17.593218 0.000034 -11.101893 -9.396133 10.121433 -2.464774 -1.574003 2.681908 18.526504 0.373898 -10.904197 1.300102 -32.699503 3.069212 -2.646277 -1.527817 1.527818 2.013299 -8.442758 1.119109 -1.994590 -1.151585 1.151578 0.000001 -0.000005 -0.000000 -9.108284 -0.517878 2.259805 0.344536 -4.673227 7.756480 0.386819 -2.823040 20.560568 -0.193148 -0.215751 13.838281 -0.000000 -0.000000 0.000004 -9.532483 0.000012 0.000003 0.908361 -8.764944 15.740284 0.918925 -3.990880 33.397552 0.216384 -1.688558 15.895300 -0.000000 -0.000001 0.000002 -9.103599 -0.043104 -1.865100 2.554904 -11.682257 26.846569 1.711320 -3.887429 40.224989 -0.157872 0.034246 17.825289 -0.000002 -0.000000 0.000000 -8.076678 -0.486729 -3.806292 5.582124 -16.058437 36.867537 1.378761 -4.077721 45.646759 -0.727763 -0.247681 22.123866 0.000002 0.000000 -0.000002 4.570402 11.014658 -2.160814 3.603865 -13.589138 -5.412512 4.121769 4.074890 -83.368005 0.000003 -13.936235 0.000013 -27.288411 3.059666 -10.247460 2.466082 -1.576220 2.681695 18.394338 -1.083744 11.101347 1.279697 33.103670 -3.073576 2.647873 -1.528749 1.528746 2.137858 9.419179 -0.455166 1.998929 -1.154096 1.154072 -0.000001 0.000006 0.000001 9.109294 -0.518021 2.259900 0.355526 4.791965 -8.716067 0.385351 2.819213 -20.519541 0.033950 0.812168 -10.123221 -0.000002 -0.000002 0.000001 9.533394 0.000020 0.000003 0.964200 8.879971 -16.437608 0.919329 3.991657 -33.405902 0.170706 1.489494 -12.270628 -0.000002 -0.000002 -0.000004 9.104496 -0.042989 -1.865101 2.602480 11.682999 -27.426054 1.708613 3.884916 -40.187563 0.543635 1.832539 -19.315592 -0.000000 -0.000001 -0.000000 8.077806 -0.486888 -3.806305 5.707825 16.100854 -37.435761 1.372681 4.070809 -45.554677 0.482827 2.845105 -20.434039 -0.000000 0.000001 0.000002 -8.207799 -6.751706 -1.599543 -1.006507 -5.910912 10.834154 12.674004 -8.518373 3.614277 -10.635135 2.771123 -7.641990 -0.521749 -0.000004 -0.000003 0.000000 -0.000001 -0.000000 8.207800 -6.751706 -1.599542 -20.105307 10.546830 16.196906 22.667646 7.783182 2.264604 -1.859917 2.367603 -8.810412 -0.386551 0.000002 0.000004 0.000000 0.000000 0.000000 
-0.665417 101.276085 2.629510 -0.899316 6.742618 -5.306896 -0.000000 10.181554 0.131523 1.111226 -0.282883 3.120834 0.693220 1.186479 5.713925 0.746614 1.700325 5.607662 0.000000 16.740381 -2.049022 0.502491 -1.918962 -2.430235 -0.000000 9.617842 1.684977 0.997901 -2.905650 -7.631072 0.000000 22.037384 7.501071 0.000000 -0.000000 0.000000 -4.570000 11.014891 -2.160841 4.467555 3.691338 5.014775 -0.495965 0.463051 68.003324 -0.000004 17.409981 0.000023 -10.965539 -9.733305 10.127422 -2.464788 -1.574000 2.681908 18.572285 0.294638 -10.882096 1.309720 -32.640088 3.043403 -2.646268 -1.527806 1.527817 2.018331 -8.456305 1.123953 -1.994578 -1.151583 1.151572 -0.000000 -0.000008 -0.000002 -9.108297 -0.517880 2.259804 0.350333 -4.677791 7.669887 0.386630 -2.822521 20.555027 -0.193165 -0.215178 13.832790 0.000000 0.000000 -0.000002 -9.532496 0.000017 -0.000000 0.904266 -8.761223 15.647890 0.918753 -3.990626 33.394499 0.216310 -1.688278 15.892370 -0.000001 -0.000000 -0.000000 -9.103595 -0.043103 -1.865104 2.554258 -11.692186 26.783931 1.711867 -3.887953 40.232423 -0.157797 0.033458 17.833161 -0.000000 -0.000001 -0.000000 -8.076690 -0.486722 -3.806300 5.588825 -16.088939 36.794226 1.378807 -4.077776 45.647500 -0.727751 -0.247756 22.124596 0.000001 0.000002 -0.000000 4.570399 11.014688 -2.160815 3.626840 -13.421892 -5.758532 4.191276 4.739858 -83.055326 -0.000003 -13.565737 -0.000001 -27.047317 2.247827 -10.946934 2.466094 -1.576216 2.681695 18.271007 -1.709587 11.310970 1.273801 33.431853 -3.054744 2.647877 -1.528753 1.528751 2.149161 9.520647 -0.499131 1.998914 -1.154092 1.154075 -0.000001 0.000003 -0.000002 9.109289 -0.518017 2.259900 0.370323 4.897813 -9.504465 0.383762 2.814967 -20.474648 0.033323 0.807667 -10.078379 -0.000001 0.000001 -0.000001 9.533415 0.000004 -0.000002 1.011784 8.977799 -16.980508 0.919747 3.992307 -33.413675 0.170902 1.490310 -12.279066 -0.000001 -0.000002 0.000000 9.104495 -0.042996 -1.865104 2.645693 11.694349 -27.891188 1.706922 3.883272 -40.163821 0.542624 1.830352 -19.291272 -0.000001 -0.000001 -0.000000 8.077793 -0.486885 -3.806302 5.824522 16.157741 -37.883607 1.367141 4.064358 -45.469925 0.479364 2.837328 -20.349468 -0.000000 -0.000001 -0.000002 -8.207797 -6.751714 -1.599544 -0.524161 -6.836207 11.216293 12.720177 -9.828113 3.948027 -11.242922 2.545920 -7.986254 -0.520919 -0.000005 -0.000000 -0.000000 -0.000001 -0.000000 8.207801 -6.751703 -1.599544 -20.676839 10.248859 16.429532 23.130741 6.329294 2.201034 -1.990084 1.427348 -8.812349 -0.364975 -0.000004 -0.000002 -0.000000 -0.000001 0.000000 
-1.251914 101.124252 2.837000 -0.905264 9.297040 -5.274849 -0.000001 10.181545 0.131525 1.048606 0.166690 3.116877 0.685828 1.700577 5.567409 0.780479 2.211890 5.452505 0.000001 16.740339 -2.049019 0.264221 -2.434139 -2.635900 -0.000006 9.617859 1.684975 0.613681 -4.146284 -7.507236 0.000001 22.037369 7.501070 -0.000000 -0.000000 0.000000 -4.569999 11.014860 -2.160838 4.446611 3.900770 4.793739 -0.003343 0.282172 68.339690 0.000021 17.132343 0.000014 -10.744893 -10.208571 10.175980 -2.464801 -1.574004 2.681912 18.646959 0.236629 -10.831901 1.301235 -32.576051 3.000530 -2.646245 -1.527789 1.527815 2.024308 -8.472354 1.129699 -1.994590 -1.151582 1.151574 0.000001 0.000001 -0.000000 -9.108306 -0.517894 2.259802 0.358611 -4.689650 7.583927 0.386411 -2.821952 20.548974 -0.193189 -0.214547 13.826767 -0.000001 0.000001 0.000003 -9.532517 -0.000005 -0.000002 0.900249 -8.758498 15.549400 0.918554 -3.990293 33.390493 0.216188 -1.687901 15.888528 -0.000001 -0.000001 0.000000 -9.103600 -0.043099 -1.865100 2.554065 -11.703707 26.718095 1.712048 -3.888137 40.235080 -0.157751 0.033131 17.836344 0.000001 0.000002 0.000000 -8.076685 -0.486724 -3.806299 5.597503 -16.122165 36.722867 1.378963 -4.077968 45.649979 -0.727756 -0.248047 22.127057 0.000002 0.000001 0.000001 4.570402 11.014667 -2.160813 3.645612 -13.295760 -6.059185 4.216873 5.643899 -82.750030 0.000006 -13.711896 -0.000008 -26.897618 1.025137 -11.374240 2.466097 -1.576212 2.681695 18.074747 -2.326140 11.570629 1.263618 33.714224 -3.026456 2.647882 -1.528747 1.528755 2.135451 9.602903 -0.408574 1.998928 -1.154091 1.154080 -0.000001 0.000001 0.000001 9.109292 -0.518017 2.259899 0.377313 4.966810 -10.075196 0.382438 2.811399 -20.436930 0.032783 0.803880 -10.040710 -0.000001 0.000000 -0.000002 9.533398 0.000017 -0.000001 1.039344 9.025418 -17.351640 0.920659 3.993729 -33.430477 0.171320 1.491968 -12.296043 0.000001 0.000002 -0.000000 9.104479 -0.043002 -1.865103 2.673361 11.697096 -28.215006 1.706226 3.882596 -40.154197 0.542209 1.829450 -19.281124 0.000001 0.000001 -0.000000 8.077801 -0.486892 -3.806305 5.898290 16.175075 -38.214601 1.362879 4.059414 -45.405158 0.476721 2.831401 -20.284880 -0.000001 -0.000002 -0.000001 -8.207800 -6.751730 -1.599544 -0.251765 -7.644478 11.670785 12.656277 -9.812981 4.232609 -11.679399 0.901178 -8.670555 -0.520920 -0.000001 -0.000000 -0.000000 0.000000 0.000000 8.207800 -6.751714 -1.599541 -21.266001 9.880854 16.565169 23.342511 4.895276 2.169171 -1.853233 0.504793 -8.779385 -0.473469 0.000005 -0.000003 0.000000 0.000000 0.000000 
